<?xml version="1.0" encoding="UTF-8" standalone="no"?>
<!-- Created with Inkscape (http://www.inkscape.org/) -->

<svg
   xmlns:dc="http://purl.org/dc/elements/1.1/"
   xmlns:cc="http://creativecommons.org/ns#"
   xmlns:rdf="http://www.w3.org/1999/02/22-rdf-syntax-ns#"
   xmlns:svg="http://www.w3.org/2000/svg"
   xmlns="http://www.w3.org/2000/svg"
   xmlns:sodipodi="http://sodipodi.sourceforge.net/DTD/sodipodi-0.dtd"
   xmlns:inkscape="http://www.inkscape.org/namespaces/inkscape"
   width="500"
   height="500"
   id="svg2"
   version="1.1"
   inkscape:version="0.48.4 r9939"
   sodipodi:docname="calendar.svg"
   inkscape:export-filename="/home/klomp/Repositories/car/car/_attachments/images/calendar.png"
   inkscape:export-xdpi="9"
   inkscape:export-ydpi="9">
  <defs
     id="defs4" />
  <sodipodi:namedview
     id="base"
     pagecolor="#ffffff"
     bordercolor="#666666"
     borderopacity="1.0"
     inkscape:pageopacity="0.0"
     inkscape:pageshadow="2"
     inkscape:zoom="0.35"
     inkscape:cx="759.94292"
     inkscape:cy="553.21132"
     inkscape:document-units="px"
     inkscape:current-layer="layer1"
     showgrid="true"
     inkscape:window-width="1288"
     inkscape:window-height="782"
     inkscape:window-x="388"
     inkscape:window-y="169"
     inkscape:window-maximized="0">
    <inkscape:grid
       type="xygrid"
       id="grid3439"
       empspacing="5"
       visible="true"
       enabled="true"
       snapvisiblegridlinesonly="true" />
  </sodipodi:namedview>
  <metadata
     id="metadata7">
    <rdf:RDF>
      <cc:Work
         rdf:about="">
        <dc:format>image/svg+xml</dc:format>
        <dc:type
           rdf:resource="http://purl.org/dc/dcmitype/StillImage" />
        <dc:title></dc:title>
      </cc:Work>
    </rdf:RDF>
  </metadata>
  <g
     inkscape:label="Ebene 1"
     inkscape:groupmode="layer"
     id="layer1"
     transform="translate(0,-552.36218)">
    <flowRoot
       xml:space="preserve"
       id="flowRoot3129"
       style="fill:black;stroke:none;stroke-opacity:1;stroke-width:1px;stroke-linejoin:miter;stroke-linecap:butt;fill-opacity:1;font-family:Arial;font-style:normal;font-weight:normal;font-size:40px;line-height:125%;letter-spacing:0px;word-spacing:0px;-inkscape-font-specification:Arial;font-stretch:normal;font-variant:normal"><flowRegion
         id="flowRegion3131"><rect
           id="rect3133"
           width="325.26913"
           height="342.44171"
           x="-356.58386"
           y="211.09637" /></flowRegion><flowPara
         id="flowPara3135" /></flowRoot>    <text
       xml:space="preserve"
       style="font-size:40px;font-style:normal;font-variant:normal;font-weight:normal;font-stretch:normal;line-height:125%;letter-spacing:0px;word-spacing:0px;fill:#ffffff;fill-opacity:1;stroke:none;font-family:Arial;-inkscape-font-specification:Arial"
       x="214.23862"
       y="828.34845"
       id="text2985-7-1-2-6"
       sodipodi:linespacing="125%"><tspan
         sodipodi:role="line"
         id="tspan2987-1-5-7-1"
         x="214.23862"
         y="828.34845"
         style="font-size:150px;font-style:normal;font-variant:normal;font-weight:normal;font-stretch:normal;fill:#ffffff;font-family:Calibri;-inkscape-font-specification:Calibri" /></text>
    <path
       transform="translate(0,552.36218)"
       style="fill:#ffffff;fill-opacity:1;stroke:#000000;stroke-width:5;stroke-linejoin:round;stroke-miterlimit:4;stroke-opacity:1"
       d="m 75,20 350,20 0,440 -250,0 L 75,380 z"
       id="rect3588"
       inkscape:connector-curvature="0"
       sodipodi:nodetypes="cccccc" />
    <path
       style="fill:#ffffff;fill-opacity:1;stroke:#000000;stroke-width:5;stroke-linejoin:round;stroke-miterlimit:4;stroke-opacity:1"
       d="m 75,572.36218 350,20 0,440.00002 c -116.66667,0 -233.33333,0 -350,0 z"
       id="rect3588-8"
       inkscape:connector-curvature="0"
       sodipodi:nodetypes="ccccc" />
    <g
       style="font-size:40px;font-style:normal;font-variant:normal;font-weight:normal;font-stretch:normal;line-height:125%;letter-spacing:0px;word-spacing:0px;fill:#000000;fill-opacity:1;stroke:none;font-family:Calibri;-inkscape-font-specification:Calibri"
       id="text3656">
      <path
         d="m 199.90625,666.58093 c -6e-5,0.89071 -0.0469,1.66415 -0.14063,2.32032 -0.0938,0.65633 -0.25787,1.18367 -0.49218,1.58203 -0.23444,0.39852 -0.50397,0.69148 -0.8086,0.8789 -0.30474,0.18758 -0.62115,0.28133 -0.94922,0.28125 l -33.32812,0 0,30.9375 31.5,0 c 0.32807,5e-5 0.64447,0.0821 0.94922,0.2461 0.30463,0.16411 0.57416,0.43364 0.80859,0.80859 0.23432,0.37505 0.39838,0.87895 0.49219,1.51172 0.0937,0.63286 0.14057,1.44145 0.14062,2.42578 -5e-5,0.89067 -0.0469,1.65239 -0.14062,2.28516 -0.0938,0.63285 -0.25787,1.14848 -0.49219,1.54687 -0.23443,0.39848 -0.50396,0.70317 -0.80859,0.91406 -0.30475,0.21098 -0.62115,0.31645 -0.94922,0.31641 l -31.5,0 0,37.89844 c -2e-5,0.32812 -0.0938,0.64453 -0.28125,0.94922 -0.18752,0.30468 -0.51565,0.53906 -0.98438,0.70312 -0.46877,0.16406 -1.07814,0.30469 -1.82812,0.42188 -0.75002,0.11718 -1.73439,0.17578 -2.95313,0.17578 -1.12501,0 -2.08595,-0.0586 -2.88281,-0.17578 -0.79689,-0.11719 -1.4297,-0.25782 -1.89844,-0.42188 -0.46876,-0.16406 -0.79688,-0.39844 -0.98437,-0.70312 -0.18751,-0.30469 -0.28126,-0.6211 -0.28125,-0.94922 l 0,-84.23438 c -1e-5,-1.82803 0.48046,-3.10538 1.44141,-3.83203 0.96092,-0.72647 1.98045,-1.08975 3.05859,-1.08984 l 40.92187,0 c 0.32807,9e-5 0.64448,0.0938 0.94922,0.28125 0.30463,0.18759 0.57416,0.49228 0.8086,0.91406 0.23431,0.42196 0.39838,0.97275 0.49218,1.65234 0.0937,0.67978 0.14057,1.46493 0.14063,2.35547 z"
         style="font-size:144px;fill:#000000;-inkscape-font-specification:Calibri"
         id="path5347" />
      <path
         d="m 270.85156,716.22156 c -6e-5,1.82816 -0.45709,3.12894 -1.37109,3.90234 -0.91413,0.77347 -1.95709,1.16019 -3.12891,1.16016 l -41.48437,0 c -2e-5,3.51565 0.35154,6.67971 1.05468,9.49219 0.70311,2.81251 1.87498,5.22657 3.51563,7.24218 1.6406,2.01564 3.77341,3.56251 6.39844,4.64063 2.62497,1.07813 5.8359,1.61719 9.63281,1.61719 2.99996,0 5.67183,-0.24609 8.01562,-0.73829 2.34371,-0.49217 4.37105,-1.04296 6.08204,-1.65234 1.71088,-0.60936 3.11713,-1.16014 4.21875,-1.65234 1.1015,-0.49218 1.93353,-0.73827 2.49609,-0.73828 0.32806,10e-6 0.62103,0.082 0.87891,0.24609 0.25775,0.16407 0.45697,0.41017 0.59765,0.73828 0.14057,0.32814 0.24603,0.78517 0.31641,1.37109 0.0702,0.58595 0.10541,1.30079 0.10547,2.14454 -6e-5,0.60938 -0.0235,1.13672 -0.0703,1.58203 -0.0469,0.44532 -0.10553,0.84375 -0.17578,1.19531 -0.0704,0.35157 -0.18756,0.66797 -0.35156,0.94922 -0.16412,0.28125 -0.37506,0.55078 -0.63281,0.80859 -0.25787,0.25782 -1.01959,0.67969 -2.28516,1.26563 -1.26568,0.58594 -2.9063,1.16015 -4.92187,1.72265 -2.01568,0.5625 -4.34771,1.06641 -6.9961,1.51172 -2.64848,0.44531 -5.47269,0.66797 -8.47265,0.66797 -5.20316,0 -9.76175,-0.72656 -13.67578,-2.17969 -3.91409,-1.45312 -7.20705,-3.60937 -9.87891,-6.46875 -2.67189,-2.85936 -4.68751,-6.4453 -6.04688,-10.75781 -1.35938,-4.31248 -2.03906,-9.3281 -2.03906,-15.04687 0,-5.43747 0.70312,-10.32418 2.10938,-14.66016 1.40624,-4.33589 3.43358,-8.01557 6.08203,-11.03906 2.64842,-3.02338 5.84763,-5.34369 9.59765,-6.96094 3.74998,-1.61712 7.94529,-2.42571 12.58594,-2.42578 4.96871,7e-5 9.19918,0.79694 12.69141,2.39062 3.49213,1.59382 6.36322,3.73835 8.61328,6.4336 2.24994,2.69537 3.90228,5.85942 4.95703,9.49218 1.05462,3.63286 1.58197,7.51176 1.58203,11.63672 z m -11.67187,-3.44531 c 0.14057,-6.09371 -1.20709,-10.87495 -4.04297,-14.34375 -2.83598,-3.4687 -7.04301,-5.20307 -12.6211,-5.20313 -2.8594,6e-5 -5.36721,0.53912 -7.52343,1.61719 -2.15628,1.07818 -3.96096,2.50787 -5.41407,4.28906 -1.45314,1.7813 -2.57814,3.85552 -3.375,6.22266 -0.79689,2.36723 -1.2422,4.83988 -1.33593,7.41797 z"
         style="font-size:144px;fill:#000000;-inkscape-font-specification:Calibri"
         id="path5349" />
      <path
         d="m 346.78906,718.12 c -7e-5,5.4844 -0.59772,10.41799 -1.79297,14.80078 -1.19537,4.38282 -2.95319,8.1211 -5.27343,11.21484 -2.32038,3.09376 -5.16803,5.46094 -8.54297,7.10156 -3.37505,1.64063 -7.24224,2.46094 -11.60157,2.46094 -2.01566,0 -3.87894,-0.19922 -5.58984,-0.59766 -1.71097,-0.39843 -3.38675,-1.04296 -5.02734,-1.93359 -1.64066,-0.89062 -3.28128,-2.01562 -4.92188,-3.375 -1.64065,-1.35937 -3.37502,-2.99999 -5.20312,-4.92187 l 0,7.73437 c -2e-5,0.375 -0.0938,0.70313 -0.28125,0.98438 -0.18752,0.28125 -0.49221,0.5039 -0.91407,0.66796 -0.42189,0.16407 -0.94923,0.29297 -1.58203,0.38672 -0.63283,0.0937 -1.44142,0.14063 -2.42578,0.14063 -0.93751,0 -1.73439,-0.0469 -2.39062,-0.14063 -0.65627,-0.0937 -1.19533,-0.22265 -1.61719,-0.38672 -0.42189,-0.16406 -0.70314,-0.38671 -0.84375,-0.66796 -0.14064,-0.28125 -0.21095,-0.60938 -0.21094,-0.98438 l 0,-93.9375 c -1e-5,-0.3749 0.082,-0.70303 0.2461,-0.98437 0.16405,-0.28116 0.46873,-0.51553 0.91406,-0.70313 0.4453,-0.1874 1.04295,-0.32803 1.79297,-0.42187 0.74998,-0.0937 1.68748,-0.14053 2.8125,-0.14063 1.17185,10e-5 2.13279,0.047 2.88281,0.14063 0.74998,0.0938 1.33592,0.23447 1.75781,0.42187 0.42186,0.1876 0.72654,0.42197 0.91406,0.70313 0.18748,0.28134 0.28123,0.60947 0.28125,0.98437 l 0,37.89844 c 1.87498,-1.92182 3.69139,-3.539 5.44922,-4.85156 1.75779,-1.31244 3.48044,-2.37885 5.16797,-3.19922 1.68747,-0.82025 3.37497,-1.41791 5.0625,-1.79297 1.68746,-0.37493 3.46871,-0.56243 5.34375,-0.5625 4.5937,7e-5 8.51948,0.91413 11.77735,2.74219 3.25775,1.82818 5.90619,4.2774 7.94531,7.34765 2.039,3.07037 3.52728,6.66802 4.46484,10.79297 0.93743,4.12504 1.40618,8.48441 1.40625,13.07813 z m -12.23437,1.33593 c -6e-5,-3.23434 -0.24615,-6.37496 -0.73828,-9.42187 -0.49225,-3.04683 -1.34771,-5.74214 -2.56641,-8.08594 -1.2188,-2.3437 -2.83599,-4.23041 -4.85156,-5.66016 -2.01567,-1.42963 -4.52348,-2.14447 -7.52344,-2.14453 -1.50004,6e-5 -2.9766,0.211 -4.42969,0.63282 -1.45316,0.42193 -2.92972,1.12505 -4.42969,2.10937 -1.50003,0.98443 -3.05862,2.25005 -4.67578,3.79688 -1.61721,1.54692 -3.33986,3.49223 -5.16797,5.83593 l 0,25.24219 c 3.18748,3.89064 6.23435,6.85548 9.14063,8.89453 2.90622,2.03907 5.92965,3.0586 9.07031,3.0586 2.90621,0 5.39058,-0.70312 7.45313,-2.10938 2.06245,-1.40624 3.73823,-3.26952 5.02734,-5.58984 1.28901,-2.3203 2.22651,-4.92186 2.8125,-7.80469 0.58588,-2.88279 0.87885,-5.80075 0.87891,-8.75391 z"
         style="font-size:144px;fill:#000000;-inkscape-font-specification:Calibri"
         id="path5351" />
    </g>
    <g
       style="font-size:40px;font-style:normal;font-variant:normal;font-weight:normal;font-stretch:normal;line-height:125%;letter-spacing:0px;word-spacing:0px;fill:#000000;fill-opacity:1;stroke:none;font-family:Calibri;-inkscape-font-specification:Calibri"
       id="text3672"
       transform="translate(-0.69336,4.04297)">
      <path
         d="m 239.16016,916.8446 c -1.4e-4,9.47271 -1.80678,17.87114 -5.41993,25.19532 -3.61341,7.32424 -8.6427,13.47658 -15.08789,18.45703 -6.44542,4.98047 -14.16026,8.76465 -23.14453,11.35254 -8.98446,2.58789 -18.7989,3.88183 -29.44336,3.88183 -6.44537,0 -12.50005,-0.46387 -18.16406,-1.3916 -5.6641,-0.92773 -10.66898,-2.07519 -15.01465,-3.44238 -4.34573,-1.36719 -7.93459,-2.7832 -10.7666,-4.24805 -2.83205,-1.46483 -4.68752,-2.58788 -5.56641,-3.36914 -0.87892,-0.78124 -1.5381,-1.66014 -1.97753,-2.63672 -0.43947,-0.97655 -0.8301,-2.12401 -1.17188,-3.44238 -0.34181,-1.31834 -0.58595,-2.9785 -0.73242,-4.98047 -0.1465,-2.00193 -0.21974,-4.41892 -0.21973,-7.25098 -1e-5,-4.68746 0.39061,-7.93453 1.17188,-9.74121 0.78123,-1.8066 1.95311,-2.70992 3.51562,-2.70996 0.97655,4e-5 2.66111,0.65922 5.05371,1.97754 2.39256,1.3184 5.44431,2.73441 9.15528,4.24805 3.7109,1.5137 8.0566,2.92972 13.03711,4.24805 4.98042,1.31838 10.64447,1.97756 16.99218,1.97753 5.37103,3e-5 10.10735,-0.63473 14.20899,-1.90429 4.10148,-1.2695 7.59269,-3.05173 10.47363,-5.34668 2.88077,-2.29489 5.02921,-5.07809 6.44531,-8.34961 1.41592,-3.27144 2.12393,-6.90913 2.12403,-10.91309 -1e-4,-4.39447 -0.85459,-8.34954 -2.56348,-11.86523 -1.70908,-3.51556 -4.24814,-6.51848 -7.61719,-9.00879 -3.36922,-2.49016 -7.61726,-4.41887 -12.74414,-5.78613 -5.12702,-1.36711 -11.15729,-2.0507 -18.09082,-2.05078 l -16.40625,0 c -1.26957,8e-5 -2.34378,-0.17082 -3.22266,-0.5127 -0.87893,-0.34171 -1.61136,-1.04972 -2.19726,-2.12402 -0.58597,-1.07414 -1.00101,-2.56339 -1.24512,-4.46778 -0.24417,-1.9042 -0.36624,-4.37002 -0.36621,-7.39746 -3e-5,-2.83193 0.12204,-5.15126 0.36621,-6.95801 0.24411,-1.80653 0.63474,-3.19813 1.17188,-4.1748 0.53707,-0.97645 1.22067,-1.66005 2.05078,-2.05078 0.83004,-0.39052 1.83102,-0.58583 3.00293,-0.58594 l 16.55273,0 c 5.66401,1.1e-4 10.6933,-0.65907 15.08789,-1.97754 4.39446,-1.31824 8.08098,-3.19812 11.05957,-5.63965 2.97844,-2.44128 5.24894,-5.39538 6.81153,-8.8623 1.56241,-3.46667 2.34366,-7.29967 2.34375,-11.49902 -9e-5,-3.22252 -0.5372,-6.27427 -1.61133,-9.15528 -1.07431,-2.88071 -2.66122,-5.37094 -4.76074,-7.4707 -2.09969,-2.09945 -4.80965,-3.75961 -8.12989,-4.98047 -3.32038,-1.22054 -7.22663,-1.83089 -11.71875,-1.83105 -5.07818,1.6e-4 -9.86333,0.75699 -14.35547,2.2705 -4.49223,1.51383 -8.52054,3.17399 -12.08496,4.98047 -3.56448,1.8068 -6.59182,3.49136 -9.08203,5.05371 -2.49026,1.56265 -4.32131,2.3439 -5.49316,2.34375 -0.78127,1.5e-4 -1.46486,-0.17075 -2.05078,-0.51269 -0.58596,-0.34165 -1.07424,-1.00083 -1.46485,-1.97754 -0.39064,-0.97641 -0.68361,-2.39243 -0.8789,-4.24805 -0.19533,-1.85531 -0.29299,-4.24789 -0.29297,-7.17773 -2e-5,-2.44125 0.0488,-4.46761 0.14648,-6.0791 0.0976,-1.61116 0.29295,-2.95394 0.58594,-4.02832 0.29295,-1.07405 0.65916,-2.00178 1.09863,-2.78321 0.43944,-0.78107 1.14744,-1.63556 2.12403,-2.56347 0.97654,-0.92756 2.97849,-2.31916 6.00586,-4.17481 3.02731,-1.85528 6.8359,-3.66192 11.42578,-5.41992 4.5898,-1.75763 9.88764,-3.24688 15.89355,-4.46777 6.0058,-1.22052 12.52435,-1.83087 19.55567,-1.83106 9.1796,1.9e-4 17.30948,1.07441 24.38964,3.22266 7.07998,2.14862 13.037,5.2492 17.8711,9.30175 4.83386,4.05292 8.49597,9.03338 10.98633,14.94141 2.4901,5.90836 3.73522,12.5734 3.73535,19.99512 -1.3e-4,5.76186 -0.73255,11.13295 -2.19727,16.11328 -1.46497,4.98059 -3.6134,9.42395 -6.44531,13.33008 -2.83215,3.90636 -6.37219,7.22667 -10.62012,9.96094 -4.24815,2.73447 -9.15537,4.78525 -14.72168,6.15234 l 0,0.43945 c 6.64052,0.78135 12.59755,2.46592 17.8711,5.05371 5.27331,2.58799 9.74108,5.83505 13.40332,9.74121 3.66198,3.90633 6.46959,8.32528 8.42285,13.25684 1.95299,4.93171 2.92955,10.22955 2.92969,15.89355 z"
         style="font-size:300px;font-weight:bold;fill:#000000;-inkscape-font-specification:Calibri Bold"
         id="path5342"
         inkscape:connector-curvature="0" />
      <path
         d="m 396.19141,876.85437 c -1.5e-4,15.1368 -1.22085,28.80866 -3.66211,41.01563 -2.44155,12.20707 -6.42104,22.60745 -11.93848,31.20117 -5.5177,8.59376 -12.69543,15.18555 -21.5332,19.77539 -8.83799,4.58984 -19.65341,6.88476 -32.44629,6.88476 -12.98834,0 -23.73052,-2.22168 -32.22656,-6.66504 -8.49613,-4.44335 -15.23441,-10.83983 -20.21485,-19.18945 -4.98048,-8.34958 -8.47169,-18.55465 -10.47363,-30.61523 -2.00196,-12.06049 -3.00294,-25.70793 -3.00293,-40.94239 -10e-6,-15.03895 1.24511,-28.6864 3.73535,-40.94238 2.49022,-12.25571 6.49412,-22.68051 12.01172,-31.27441 5.51755,-8.59358 12.69528,-15.18537 21.5332,-19.77539 8.83784,-4.58966 19.60443,-6.88458 32.29981,-6.88477 12.98819,1.9e-4 23.75478,2.22187 32.2998,6.66504 8.54481,4.44354 15.30749,10.84002 20.28809,19.18945 4.98033,8.34977 8.44712,18.55484 10.40039,30.61524 1.95298,12.06067 2.92954,25.70812 2.92969,40.94238 z m -38.81836,1.9043 c -1.1e-4,-8.98428 -0.24425,-16.91884 -0.73243,-23.80371 -0.48838,-6.88465 -1.24522,-12.86608 -2.2705,-17.94434 -1.02549,-5.07798 -2.29502,-9.37486 -3.8086,-12.89062 -1.51377,-3.51548 -3.34482,-6.32309 -5.49316,-8.42286 -2.14853,-2.09945 -4.58993,-3.5887 -7.32422,-4.46777 -2.73446,-0.87874 -5.7618,-1.3182 -9.08203,-1.31836 -5.76179,1.6e-4 -10.52253,1.39176 -14.28223,4.17481 -3.75982,2.78335 -6.73833,6.95815 -8.93554,12.52441 -2.19732,5.56655 -3.7354,12.50013 -4.61426,20.80078 -0.87896,8.3009 -1.31841,17.96886 -1.31836,29.00391 -5e-5,13.47664 0.53706,24.63386 1.61133,33.47168 1.07417,8.83794 2.75873,15.86918 5.05371,21.09375 2.29486,5.22464 5.24896,8.88675 8.8623,10.98632 3.61322,2.09964 7.95892,3.14945 13.03711,3.14942 3.80852,3e-5 7.17765,-0.61032 10.10742,-1.83106 2.9296,-1.22067 5.49308,-3.05172 7.69043,-5.49316 2.19717,-2.44137 4.02823,-5.51754 5.49317,-9.22852 1.46474,-3.71089 2.66103,-8.00776 3.58886,-12.89062 0.92764,-4.88275 1.5624,-10.40032 1.9043,-16.55273 0.34169,-6.15227 0.51259,-12.93937 0.5127,-20.36133 z"
         style="font-size:300px;font-weight:bold;fill:#000000;-inkscape-font-specification:Calibri Bold"
         id="path5344"
         inkscape:connector-curvature="0" />
    </g>
    <path
       style="fill:#ffffff;fill-opacity:1;stroke:#000000;stroke-width:5;stroke-linejoin:round;stroke-miterlimit:4;stroke-opacity:1"
       d="m 75,932.36218 100,0 0,100.00002 c -45,-30 -65,-50.00002 -100,-100.00002 z"
       id="rect3588-6"
       inkscape:connector-curvature="0"
       sodipodi:nodetypes="cccc" />
    <path
       style="fill:#ffffff;fill-opacity:1;stroke:#000000;stroke-width:5;stroke-linejoin:round;stroke-miterlimit:4;stroke-opacity:1"
       d="m 65,572.36218 350,0 10,20 c -116.66667,0 -233.33333,0 -350,0 z"
       id="rect3588-8-5"
       inkscape:connector-curvature="0"
       sodipodi:nodetypes="ccccc" />
    <path
       style="fill:#ffffff;fill-opacity:1;stroke:#000000;stroke-width:5;stroke-linejoin:round;stroke-miterlimit:4;stroke-opacity:1"
       d="m 65,1012.3622 0,-440.00002 10,20 0,440.00002 z"
       id="rect3588-8-5-7"
       inkscape:connector-curvature="0"
       sodipodi:nodetypes="ccccc" />
    <path
       sodipodi:type="arc"
       style="fill:#000000;fill-opacity:1;stroke:#000000;stroke-width:0;stroke-linejoin:round;stroke-miterlimit:4;stroke-opacity:1;stroke-dasharray:none"
       id="path5097"
       sodipodi:cx="150"
       sodipodi:cy="-45"
       sodipodi:rx="15"
       sodipodi:ry="15"
       d="m 165,-45 c 0,8.284271 -6.71573,15 -15,15 -8.28427,0 -15,-6.715729 -15,-15 0,-8.284271 6.71573,-15 15,-15 8.28427,0 15,6.715729 15,15 z"
       transform="translate(-20,677.36218)" />
    <path
       sodipodi:type="arc"
       style="fill:#000000;fill-opacity:1;stroke:#000000;stroke-width:0;stroke-linejoin:round;stroke-miterlimit:4;stroke-opacity:1;stroke-dasharray:none"
       id="path5097-6"
       sodipodi:cx="150"
       sodipodi:cy="-45"
       sodipodi:rx="15"
       sodipodi:ry="15"
       d="m 165,-45 c 0,8.284271 -6.71573,15 -15,15 -8.28427,0 -15,-6.715729 -15,-15 0,-8.284271 6.71573,-15 15,-15 8.28427,0 15,6.715729 15,15 z"
       transform="translate(220,677.36218)" />
  </g>
</svg>
