<?xml version="1.0" encoding="UTF-8" standalone="no"?>
<!-- Created with Inkscape (http://www.inkscape.org/) -->

<svg
   xmlns:dc="http://purl.org/dc/elements/1.1/"
   xmlns:cc="http://creativecommons.org/ns#"
   xmlns:rdf="http://www.w3.org/1999/02/22-rdf-syntax-ns#"
   xmlns:svg="http://www.w3.org/2000/svg"
   xmlns="http://www.w3.org/2000/svg"
   xmlns:sodipodi="http://sodipodi.sourceforge.net/DTD/sodipodi-0.dtd"
   xmlns:inkscape="http://www.inkscape.org/namespaces/inkscape"
   width="500"
   height="500"
   id="svg2"
   version="1.1"
   inkscape:version="0.48.2 r9819"
   sodipodi:docname="Neues Dokument 1">
  <defs
     id="defs4" />
  <sodipodi:namedview
     id="base"
     pagecolor="#ffffff"
     bordercolor="#666666"
     borderopacity="1.0"
     inkscape:pageopacity="0.0"
     inkscape:pageshadow="2"
     inkscape:zoom="0.98994949"
     inkscape:cx="384.52194"
     inkscape:cy="335.54349"
     inkscape:document-units="px"
     inkscape:current-layer="layer1"
     showgrid="true"
     inkscape:window-width="1920"
     inkscape:window-height="1058"
     inkscape:window-x="1912"
     inkscape:window-y="-8"
     inkscape:window-maximized="1">
    <inkscape:grid
       type="xygrid"
       id="grid3439"
       empspacing="5"
       visible="true"
       enabled="true"
       snapvisiblegridlinesonly="true" />
  </sodipodi:namedview>
  <metadata
     id="metadata7">
    <rdf:RDF>
      <cc:Work
         rdf:about="">
        <dc:format>image/svg+xml</dc:format>
        <dc:type
           rdf:resource="http://purl.org/dc/dcmitype/StillImage" />
        <dc:title></dc:title>
      </cc:Work>
    </rdf:RDF>
  </metadata>
  <g
     inkscape:label="Ebene 1"
     inkscape:groupmode="layer"
     id="layer1"
     transform="translate(0,-552.36218)">
    <rect
       style="fill:#000000"
       id="rect3137"
       width="480"
       height="155"
       x="10"
       y="721.68695" />
    <g
       style="font-size:54.32965851px;font-style:normal;font-variant:normal;font-weight:normal;font-stretch:normal;line-height:125%;letter-spacing:0px;word-spacing:0px;fill:#ffffff;fill-opacity:1;stroke:none;font-family:Arial;-inkscape-font-specification:Arial"
       id="text2985"
       transform="translate(0,74.32474)">
      <path
         d="m 106.19771,725.22465 c -1e-4,9.8818 -0.77936,18.90136 -2.33779,27.05872 -1.55862,8.15743 -4.145116,15.17081 -7.759487,21.04014 -3.614543,5.86936 -8.339866,10.4123 -14.175981,13.62884 -5.83626,3.21654 -13.032014,4.8248 -21.587284,4.8248 -8.091128,0 -14.905541,-1.44246 -20.443257,-4.3274 -5.537776,-2.88493 -9.997817,-7.12943 -13.380136,-12.73351 -3.382353,-5.60405 -5.786464,-12.50137 -7.212342,-20.69196 -1.425896,-8.19052 -2.138839,-17.59143 -2.138832,-28.20274 -7e-6,-9.81535 0.795837,-18.81833 2.387534,-27.00898 1.591678,-8.19046 4.17817,-15.22042 7.759484,-21.08988 3.58128,-5.86923 8.290022,-10.41218 14.126241,-13.62884 5.836156,-3.21641 12.99875,-4.82467 21.487803,-4.8248 8.157346,1.3e-4 15.004918,1.44259 20.542737,4.3274 5.537673,2.88506 9.997714,7.12956 13.380137,12.73351 3.382253,5.60418 5.786363,12.5015 7.212343,20.69196 1.42579,8.19065 2.13873,17.59156 2.13883,28.20274 z m -17.50858,1.19377 c -7.8e-5,-6.43301 -0.232199,-12.20287 -0.696364,-17.30962 -0.46432,-5.10658 -1.144103,-9.61636 -2.039351,-13.52936 -0.8954,-3.9128 -2.056006,-7.27856 -3.48182,-10.09727 -1.425959,-2.81851 -3.133707,-5.13972 -5.12325,-6.96364 -1.989676,-1.8237 -4.261147,-3.15011 -6.814419,-3.97923 -2.553392,-0.82888 -5.421746,-1.24339 -8.605069,-1.2435 -5.637278,1.1e-4 -10.21338,1.32652 -13.728318,3.97922 -3.515015,2.65292 -6.283888,6.30054 -8.306628,10.94286 -2.022799,4.64253 -3.398946,10.08079 -4.128444,16.31482 -0.729549,6.23419 -1.09431,12.93254 -1.094286,20.09507 -2.4e-5,9.61651 0.497378,17.79049 1.492209,24.52196 0.994778,6.73155 2.569886,12.21956 4.725327,16.46404 2.155379,4.24452 4.907672,7.32841 8.256887,9.25169 3.349137,1.9233 7.411256,2.88495 12.18637,2.88493 3.713886,2e-5 6.980161,-0.59687 9.798836,-1.79065 2.818552,-1.19375 5.239243,-2.9015 7.262081,-5.12325 2.022702,-2.22171 3.69729,-4.8911 5.023769,-8.00818 1.326333,-3.11703 2.387458,-6.56568 3.183378,-10.34598 0.795768,-3.78022 1.34291,-7.8755 1.64143,-12.28585 0.298363,-4.41025 0.447584,-9.00293 0.447662,-13.77806 z"
         style="font-size:203.73620605px;fill:#ffffff;font-family:Calibri;-inkscape-font-specification:Calibri"
         id="path3571"
         inkscape:connector-curvature="0" />
    </g>
    <flowRoot
       xml:space="preserve"
       id="flowRoot3129"
       style="fill:black;stroke:none;stroke-opacity:1;stroke-width:1px;stroke-linejoin:miter;stroke-linecap:butt;fill-opacity:1;font-family:Arial;font-style:normal;font-weight:normal;font-size:40px;line-height:125%;letter-spacing:0px;word-spacing:0px;-inkscape-font-specification:Arial;font-stretch:normal;font-variant:normal"><flowRegion
         id="flowRegion3131"><rect
           id="rect3133"
           width="325.26913"
           height="342.44171"
           x="-356.58386"
           y="211.09637" /></flowRegion><flowPara
         id="flowPara3135"></flowPara></flowRoot>    <g
       style="font-size:54.32965851px;font-style:normal;font-variant:normal;font-weight:normal;font-stretch:normal;line-height:125%;letter-spacing:0px;word-spacing:0px;fill:#ffffff;fill-opacity:1;stroke:none;font-family:Arial;-inkscape-font-specification:Arial"
       id="text2985-7-1"
       transform="translate(0,74.32474)">
      <path
         d="m 196.03409,782.78537 c -1e-4,1.26009 -0.0996,2.32122 -0.29845,3.18338 -0.19905,0.86217 -0.46433,1.55853 -0.79584,2.08909 -0.33169,0.53056 -0.71304,0.91191 -1.14403,1.14403 -0.43117,0.23212 -0.87883,0.34818 -1.34299,0.34818 l -67.24886,0 c -0.46426,0 -0.89535,-0.11606 -1.29325,-0.34818 -0.39794,-0.23212 -0.77928,-0.61347 -1.14402,-1.14403 -0.36478,-0.53056 -0.64665,-1.22692 -0.84559,-2.08909 -0.19898,-0.86216 -0.29846,-1.92329 -0.29844,-3.18338 -2e-5,-1.19376 0.0995,-2.22172 0.29844,-3.0839 0.19894,-0.86215 0.44765,-1.5751 0.74611,-2.13883 0.29842,-0.56371 0.66318,-0.99479 1.09428,-1.29325 0.43106,-0.29843 0.91189,-0.44765 1.44247,-0.44766 l 26.85975,0 0,-97.88888 -24.87014,14.8226 c -1.26011,0.6633 -2.27149,1.06123 -3.03416,1.19377 -0.7627,0.13274 -1.37616,-0.0165 -1.84039,-0.44766 -0.46426,-0.43099 -0.77928,-1.14393 -0.94506,-2.13883 -0.16582,-0.99471 -0.24872,-2.2548 -0.2487,-3.78026 -2e-5,-1.12735 0.0497,-2.08899 0.14922,-2.88494 0.0995,-0.79574 0.24868,-1.45894 0.44766,-1.98961 0.19894,-0.53046 0.4808,-0.9947 0.84558,-1.39273 0.36475,-0.39781 0.84557,-0.79574 1.44247,-1.19377 l 29.64521,-19.00079 c 0.26523,-0.19883 0.59684,-0.36463 0.99481,-0.4974 0.39787,-0.13251 0.89527,-0.26515 1.49221,-0.39792 0.59683,-0.13251 1.29319,-0.21541 2.08909,-0.2487 0.79579,-0.033 1.79059,-0.0496 2.98442,-0.0497 1.59163,1.3e-4 2.91803,0.0665 3.97922,0.19896 1.06106,0.13277 1.89007,0.31515 2.48701,0.54714 0.59682,0.23225 0.99474,0.53069 1.19377,0.89533 0.1989,0.36489 0.29838,0.74623 0.29844,1.14402 l 0,113.10941 23.27845,0 c 0.53048,10e-6 1.02788,0.14923 1.49221,0.44766 0.46416,0.29846 0.8455,0.72954 1.14403,1.29325 0.29835,0.56373 0.53047,1.27668 0.69636,2.13883 0.16571,0.86218 0.24861,1.89014 0.24871,3.0839 z"
         style="font-size:203.73620605px;fill:#ffffff;font-family:Calibri;-inkscape-font-specification:Calibri"
         id="path3574"
         inkscape:connector-curvature="0" />
    </g>
    <g
       style="font-size:54.32965851px;font-style:normal;font-variant:normal;font-weight:normal;font-stretch:normal;line-height:125%;letter-spacing:0px;word-spacing:0px;fill:#ffffff;fill-opacity:1;stroke:none;font-family:Arial;-inkscape-font-specification:Arial"
       id="text2985-7-1-2"
       transform="translate(0,74.32474)">
      <path
         d="m 289.46378,782.18849 c -9e-5,1.19377 -0.083,2.25489 -0.2487,3.18337 -0.1659,0.92849 -0.39802,1.70776 -0.69637,2.3378 -0.29853,0.63004 -0.69645,1.09429 -1.19376,1.39273 -0.4975,0.29844 -1.04464,0.44766 -1.64143,0.44766 l -71.12861,0 c -0.9285,0 -1.74093,-0.11606 -2.43727,-0.34818 -0.69638,-0.23212 -1.29327,-0.61347 -1.79066,-1.14403 -0.49741,-0.53056 -0.86217,-1.29324 -1.09428,-2.28805 -0.23213,-0.9948 -0.34819,-2.22173 -0.34818,-3.68078 -1e-5,-1.3264 0.0497,-2.48701 0.14922,-3.48182 0.0995,-0.9948 0.31501,-1.87354 0.64662,-2.63624 0.33159,-0.76267 0.74609,-1.52535 1.24351,-2.28805 0.49739,-0.76267 1.14401,-1.57509 1.93987,-2.43728 l 24.96962,-26.46183 c 5.76983,-6.10142 10.39567,-11.57285 13.87754,-16.41429 3.48176,-4.84132 6.16774,-9.25162 8.05793,-13.23092 1.89006,-3.97914 3.13357,-7.5936 3.73052,-10.84338 0.59682,-3.24961 0.89526,-6.30034 0.89532,-9.15221 -6e-5,-2.85168 -0.4643,-5.55423 -1.39272,-8.10767 -0.92855,-2.55323 -2.27154,-4.79154 -4.02897,-6.71494 -1.75755,-1.92318 -3.9627,-3.44854 -6.61545,-4.5761 -2.65287,-1.12733 -5.70361,-1.69106 -9.15222,-1.69117 -4.04558,1.1e-4 -7.67662,0.56384 -10.89312,1.69117 -3.21657,1.12756 -6.03518,2.35448 -8.45585,3.68078 -2.42072,1.32651 -4.44349,2.55344 -6.06831,3.68078 -1.62487,1.12755 -2.83522,1.69127 -3.63104,1.69117 -0.46426,10e-5 -0.87876,-0.13254 -1.24351,-0.39792 -0.36478,-0.26518 -0.66322,-0.69626 -0.89533,-1.29325 -0.23213,-0.59678 -0.41451,-1.39262 -0.54714,-2.38753 -0.13265,-0.9947 -0.19897,-2.18847 -0.19896,-3.5813 -1e-5,-0.9947 0.0332,-1.85686 0.0995,-2.5865 0.0663,-0.72941 0.18237,-1.35945 0.34818,-1.89013 0.16579,-0.53045 0.38133,-1.02785 0.64663,-1.49221 0.26526,-0.46412 0.79583,-1.04443 1.59169,-1.74091 0.79582,-0.69624 2.17197,-1.64131 4.12844,-2.83519 1.95643,-1.19365 4.41028,-2.37083 7.36156,-3.53157 2.95123,-1.16047 6.20092,-2.1387 9.7491,-2.93467 3.5481,-0.79572 7.27861,-1.19364 11.19156,-1.19377 6.23406,1.3e-4 11.68891,0.87888 16.36455,2.63624 4.67552,1.75761 8.55526,4.16172 11.63923,7.21234 3.08382,3.05085 5.38845,6.59899 6.9139,10.64442 1.52528,4.04565 2.28797,8.35647 2.28805,12.93247 -8e-5,4.11196 -0.36484,8.20724 -1.09428,12.28585 -0.72961,4.07879 -2.27156,8.48909 -4.62585,13.23092 -2.35445,4.74197 -5.75337,10.01444 -10.19676,15.81741 -4.44353,5.80308 -10.34604,12.48485 -17.70754,20.04533 l -20.39351,21.28885 56.00756,0 c 0.53047,10e-6 1.04445,0.14923 1.54194,0.44766 0.49732,0.29845 0.9284,0.74612 1.29325,1.34299 0.36467,0.59689 0.62995,1.343 0.79585,2.23831 0.16571,0.89533 0.24861,1.93988 0.2487,3.13364 z"
         style="font-size:203.73620605px;fill:#ffffff;font-family:Calibri;-inkscape-font-specification:Calibri"
         id="path3577"
         inkscape:connector-curvature="0" />
    </g>
    <text
       xml:space="preserve"
       style="font-size:40px;font-style:normal;font-variant:normal;font-weight:normal;font-stretch:normal;line-height:125%;letter-spacing:0px;word-spacing:0px;fill:#ffffff;fill-opacity:1;stroke:none;font-family:Arial;-inkscape-font-specification:Arial"
       x="214.23862"
       y="828.34845"
       id="text2985-7-1-2-6"
       sodipodi:linespacing="125%"><tspan
         sodipodi:role="line"
         id="tspan2987-1-5-7-1"
         x="214.23862"
         y="828.34845"
         style="font-size:150px;font-style:normal;font-variant:normal;font-weight:normal;font-stretch:normal;fill:#ffffff;font-family:Calibri;-inkscape-font-specification:Calibri" /></text>
    <g
       style="font-size:54.32965851px;font-style:normal;font-variant:normal;font-weight:normal;font-stretch:normal;line-height:125%;letter-spacing:0px;word-spacing:0px;fill:#ffffff;fill-opacity:1;stroke:none;font-family:Arial;-inkscape-font-specification:Arial"
       id="text2985-7-1-2-4"
       transform="translate(0,74.32474)">
      <path
         d="m 382.19712,752.74224 c -9e-5,5.90254 -1.02805,11.22475 -3.0839,15.96663 -2.05601,4.74192 -5.00727,8.80404 -8.85377,12.18637 -3.84665,3.38234 -8.58856,5.98542 -14.22572,7.80922 -5.63729,1.82381 -12.00404,2.73572 -19.10027,2.73572 -4.31086,0 -8.33982,-0.34818 -12.08689,-1.04455 -3.74713,-0.69636 -7.07972,-1.52536 -9.99779,-2.48701 -2.91812,-0.96164 -5.33881,-1.95645 -7.26209,-2.98442 -1.9233,-1.02796 -3.13365,-1.77406 -3.63104,-2.23831 -0.49741,-0.46424 -0.87875,-0.92848 -1.14402,-1.39273 -0.2653,-0.46423 -0.49742,-1.02796 -0.69637,-1.69117 -0.19897,-0.66319 -0.34819,-1.47562 -0.44766,-2.43727 -0.0995,-0.96163 -0.14923,-2.13882 -0.14922,-3.53156 -10e-6,-2.38752 0.23211,-4.04553 0.69636,-4.97403 0.46423,-0.92846 1.12744,-1.39271 1.98962,-1.39273 0.59687,2e-5 1.77405,0.53059 3.53156,1.59169 1.75747,1.06115 4.01236,2.20517 6.76467,3.43208 2.75227,1.22694 5.96881,2.37097 9.64962,3.43208 3.68074,1.06114 7.77602,1.5917 12.28585,1.59169 4.3771,10e-6 8.22367,-0.56371 11.53975,-1.69117 3.31595,-1.12743 6.10141,-2.71912 8.35636,-4.77507 2.25483,-2.05591 3.946,-4.49318 5.07351,-7.31182 1.12738,-2.81859 1.6911,-5.8859 1.69117,-9.20195 -7e-5,-3.64758 -0.71301,-6.93044 -2.13883,-9.84858 -1.42596,-2.91805 -3.51505,-5.43822 -6.26728,-7.56052 -2.75235,-2.1222 -6.13469,-3.74705 -10.14701,-4.87455 -4.01244,-1.12739 -8.57196,-1.69111 -13.67858,-1.69117 l -12.23611,0 c -0.53059,6e-5 -1.04457,-0.116 -1.54195,-0.34818 -0.49743,-0.23206 -0.92851,-0.61341 -1.29325,-1.14403 -0.36478,-0.5305 -0.66323,-1.22686 -0.89532,-2.08909 -0.23215,-0.8621 -0.34821,-1.98955 -0.34819,-3.38234 -2e-5,-1.26002 0.0995,-2.30456 0.29845,-3.13364 0.19893,-0.82893 0.48079,-1.49214 0.84558,-1.98961 0.36474,-0.49733 0.77924,-0.86209 1.24351,-1.09429 0.46421,-0.23204 0.99478,-0.3481 1.59169,-0.34818 l 11.2413,0 c 4.3771,8e-5 8.30658,-0.56365 11.78845,-1.69117 3.48177,-1.12737 6.43302,-2.75222 8.85377,-4.87454 2.42063,-2.12218 4.2776,-4.65893 5.57091,-7.61027 1.29318,-2.95117 1.93981,-6.2506 1.93987,-9.89832 -6e-5,-2.65271 -0.43115,-5.18946 -1.29324,-7.61026 -0.86223,-2.42059 -2.15548,-4.52626 -3.87975,-6.31701 -1.72439,-1.79054 -3.92954,-3.19985 -6.61545,-4.22793 -2.68603,-1.02785 -5.78651,-1.54183 -9.30144,-1.54195 -3.84662,1.2e-4 -7.37818,0.58042 -10.59468,1.74091 -3.21657,1.16072 -6.08492,2.40423 -8.60507,3.73052 -2.5202,1.32652 -4.60929,2.57003 -6.26727,3.73052 -1.65803,1.16072 -2.81864,1.74102 -3.48182,1.74091 -0.46426,1.1e-4 -0.87876,-0.0828 -1.24351,-0.2487 -0.36478,-0.16569 -0.66322,-0.49729 -0.89533,-0.9948 -0.23213,-0.4973 -0.39793,-1.19366 -0.4974,-2.08909 -0.0995,-0.89522 -0.14923,-2.07241 -0.14922,-3.53156 -10e-6,-0.9947 0.0332,-1.87344 0.0995,-2.63624 0.0663,-0.76257 0.19895,-1.42577 0.39792,-1.98961 0.19895,-0.56361 0.43107,-1.07759 0.69637,-1.54195 0.26526,-0.46412 0.71293,-1.01127 1.34298,-1.64143 0.63003,-0.62992 1.9067,-1.54183 3.83001,-2.73571 1.92327,-1.19365 4.29422,-2.37083 7.11286,-3.53157 2.81858,-1.16047 6.06828,-2.1387 9.74909,-2.93467 3.68074,-0.79572 7.64338,-1.19364 11.88793,-1.19377 5.96878,1.3e-4 11.20809,0.76282 15.71793,2.28805 4.50972,1.5255 8.2734,3.68091 11.29105,6.46624 3.01749,2.78558 5.27238,6.11817 6.76467,9.9978 1.49213,3.87985 2.23823,8.17409 2.23832,12.88273 -9e-5,4.04564 -0.53065,7.80932 -1.59169,11.29105 -1.06121,3.4819 -2.61974,6.5658 -4.67559,9.25169 -2.05601,2.68605 -4.57618,4.9741 -7.56052,6.86416 -2.98449,1.8902 -6.43314,3.20003 -10.34598,3.92948 l 0,0.19896 c 4.4434,0.46431 8.50552,1.57518 12.18637,3.3326 3.6807,1.75755 6.8475,3.9627 9.50039,6.61546 2.65273,2.65287 4.72524,5.75334 6.21754,9.30143 1.49212,3.54819 2.23822,7.34503 2.23831,11.39053 z"
         style="font-size:203.73620605px;fill:#ffffff;font-family:Calibri;-inkscape-font-specification:Calibri"
         id="path3580"
         inkscape:connector-curvature="0" />
    </g>
    <g
       style="font-size:54.32965851px;font-style:normal;font-variant:normal;font-weight:normal;font-stretch:normal;line-height:125%;letter-spacing:0px;word-spacing:0px;fill:#ffffff;fill-opacity:1;stroke:none;font-family:Arial;-inkscape-font-specification:Arial"
       id="text2985-7-1-2-4-3"
       transform="translate(0,74.32474)">
      <path
         d="m 482.39148,675.75333 c -10e-5,2.18861 -0.3317,3.91294 -0.99481,5.17299 -0.6633,1.26012 -1.59178,1.89016 -2.78545,1.89013 l -14.52417,0 0,27.05872 c -8e-5,0.53056 -0.13272,0.97823 -0.39792,1.34299 -0.26536,0.36476 -0.7296,0.67978 -1.39273,0.94506 -0.66328,0.26528 -1.52544,0.46424 -2.58649,0.59688 -1.0612,0.13265 -2.42077,0.19897 -4.07871,0.19897 -1.59175,0 -2.91816,-0.0663 -3.97922,-0.19897 -1.06119,-0.13264 -1.90677,-0.3316 -2.53675,-0.59688 -0.63011,-0.26528 -1.06119,-0.5803 -1.29325,-0.94506 -0.23218,-0.36476 -0.34824,-0.81243 -0.34818,-1.34299 l 0,-27.05872 -53.12263,0 c -0.79585,3e-5 -1.45905,-0.0995 -1.98961,-0.29844 -0.53057,-0.19893 -1.01139,-0.56369 -1.44247,-1.09428 -0.43108,-0.53054 -0.72953,-1.29322 -0.89532,-2.28806 -0.16581,-0.99477 -0.24871,-2.28802 -0.2487,-3.87974 -1e-5,-1.26005 0.0331,-2.38749 0.0995,-3.38234 0.0663,-0.99476 0.19895,-1.90667 0.39792,-2.73571 0.19896,-0.82897 0.46424,-1.62481 0.79584,-2.38754 0.3316,-0.76264 0.72952,-1.57506 1.19377,-2.43727 l 46.35795,-78.19173 c 0.33154,-0.53044 0.81237,-0.99468 1.44247,-1.39273 0.62998,-0.39779 1.44241,-0.72939 2.43727,-0.9948 0.99475,-0.26516 2.22167,-0.44754 3.68078,-0.54715 1.45899,-0.0993 3.18331,-0.14909 5.17299,-0.14922 2.1885,1.3e-4 4.09521,0.083 5.72013,0.2487 1.62478,0.16593 2.9346,0.38147 3.92948,0.64663 0.99473,0.26541 1.75742,0.61359 2.28806,1.04454 0.53048,0.43121 0.79576,0.9452 0.79584,1.54195 l 0,82.17095 14.52417,0 c 1.12735,5e-5 2.03925,0.58035 2.73571,1.74091 0.69627,1.16065 1.04445,2.93472 1.04455,5.32221 z m -34.91768,-77.69432 -0.19896,0 -41.88132,70.6312 42.08028,0 z"
         style="font-size:203.73620605px;fill:#ffffff;font-family:Calibri;-inkscape-font-specification:Calibri"
         id="path3583"
         inkscape:connector-curvature="0" />
    </g>
    <g
       style="font-size:54.32965851px;font-style:normal;font-variant:normal;font-weight:normal;font-stretch:normal;line-height:125%;letter-spacing:0px;word-spacing:0px;fill:#ffffff;fill-opacity:1;stroke:none;font-family:Arial;-inkscape-font-specification:Arial"
       id="text2985-7-1-2-4-3-2"
       transform="translate(0,74.32474)">
      <path
         d="m 471.32316,820.97827 c -9e-5,6.89735 -1.16069,13.03198 -3.48182,18.4039 -2.3213,5.37197 -5.60415,9.89833 -9.84857,13.5791 -4.24458,3.68079 -9.30151,6.48282 -15.17079,8.40611 -5.86941,1.92329 -12.38538,2.88493 -19.54793,2.88493 -3.97926,0 -7.75952,-0.28186 -11.34079,-0.84558 -3.58133,-0.56373 -6.7647,-1.26009 -9.55013,-2.08909 -2.78548,-0.82901 -5.07353,-1.64143 -6.86416,-2.43728 -1.79067,-0.79584 -2.93469,-1.42588 -3.43208,-1.89013 -0.49742,-0.46423 -0.8456,-0.89532 -1.04455,-1.29325 -0.19897,-0.39791 -0.38135,-0.87873 -0.54714,-1.44246 -0.16581,-0.56372 -0.28187,-1.27666 -0.34818,-2.13884 -0.0663,-0.86215 -0.0995,-1.89011 -0.0995,-3.08389 -1e-5,-1.12744 0.0497,-2.13882 0.14922,-3.03416 0.0995,-0.89531 0.28185,-1.62483 0.54714,-2.18857 0.26527,-0.56371 0.58029,-0.97821 0.94507,-1.24351 0.36475,-0.26526 0.77925,-0.3979 1.2435,-0.39792 0.66319,2e-5 1.69116,0.41452 3.0839,1.2435 1.39271,0.82903 3.26626,1.72435 5.62065,2.68598 2.35435,0.96166 5.27245,1.87356 8.75429,2.73572 3.48179,0.86217 7.61023,1.29325 12.38533,1.29324 4.44342,10e-6 8.52212,-0.53055 12.23611,-1.59169 3.71389,-1.06111 6.91384,-2.71912 9.59988,-4.97402 2.68591,-2.25488 4.79158,-5.09007 6.31702,-8.50559 1.52529,-3.41547 2.28798,-7.57707 2.28805,-12.48482 -7e-5,-4.11181 -0.6467,-7.74285 -1.93987,-10.89312 -1.29332,-3.15016 -3.28293,-5.76981 -5.96884,-7.85896 -2.68603,-2.08903 -6.08495,-3.64756 -10.19675,-4.67559 -4.11192,-1.0279 -9.01962,-1.54188 -14.72313,-1.54195 -4.04558,7e-5 -7.52739,0.19903 -10.44546,0.59689 -2.91812,0.39798 -5.63726,0.59694 -8.15741,0.59688 -1.85699,6e-5 -3.18339,-0.43102 -3.97922,-1.29325 -0.79586,-0.8621 -1.19378,-2.52011 -1.19376,-4.97403 l 0,-52.42626 c -2e-5,-2.18845 0.51396,-3.81329 1.54194,-4.87455 1.02795,-1.06099 2.50358,-1.59156 4.42689,-1.59168 l 57.00237,0 c 0.53048,1.2e-4 1.04446,0.14935 1.54194,0.44766 0.49733,0.29857 0.91183,0.74623 1.24351,1.34299 0.33152,0.59701 0.58022,1.35969 0.74611,2.28805 0.16571,0.92861 0.24861,2.02289 0.2487,3.28286 -9e-5,2.38765 -0.33169,4.24462 -0.99481,5.57091 -0.66328,1.32652 -1.59177,1.98973 -2.78545,1.98961 l -48.04912,0 0,36.11145 c 2.32118,-0.33153 4.69213,-0.53049 7.11286,-0.59689 2.42065,-0.0662 5.22269,-0.0994 8.40611,-0.0995 7.36151,8e-5 13.79458,0.87883 19.29923,2.63624 5.50452,1.75756 10.0972,4.24457 13.77806,7.46104 3.6807,3.21661 6.46615,7.11292 8.35637,11.68897 1.89004,4.57616 2.8351,9.64966 2.83519,15.22053 z"
         style="font-size:203.73620605px;fill:#ffffff;font-family:Calibri;-inkscape-font-specification:Calibri"
         id="path3586"
         inkscape:connector-curvature="0" />
    </g>
  </g>
</svg>
